<svg xmlns="http://www.w3.org/2000/svg" viewBox="0 0 2024 1340"><filter id="b"><feGaussianBlur stdDeviation="200" /></filter><path fill="#464742" d="M0 0h2024v1336H0z"/><g filter="url(#b)" transform="translate(4 4) scale(7.90625)" fill-opacity=".5"><ellipse fill="#c3c3bf" cx="132" cy="34" rx="15" ry="87"/><ellipse fill="#b1aea9" cx="78" cy="119" rx="31" ry="33"/><ellipse fill="#000100" rx="1" ry="1" transform="matrix(-47.62154 52.70964 -26.89154 -24.29568 244.9 44.7)"/><ellipse cx="17" cy="155" rx="32" ry="32"/><path d="M87 99l33-115V91z"/><ellipse cx="71" cy="47" rx="12" ry="41"/><path fill="#c3c1bb" d="M83 0h24v26H83z"/><path fill="#fff" d="M122 14h26v22h-26z"/><ellipse rx="1" ry="1" transform="rotate(92 38.4 113.7) scale(60.03619 7.89485)"/><path fill="#878275" d="M188.4 122.7l-29-1.5 4.2-79.9 29 1.5z"/></g></svg>