<svg xmlns="http://www.w3.org/2000/svg" viewBox="0 0 2024 1349"><filter id="b"><feGaussianBlur stdDeviation="200" /></filter><path fill="#7b7768" d="M0 0h2024v1344H0z"/><g filter="url(#b)" transform="translate(4 4) scale(7.90625)" fill-opacity=".5"><ellipse fill="#fff" rx="1" ry="1" transform="matrix(199.52628 -35.18187 8.99085 50.98963 106.5 21)"/><ellipse cx="166" cy="169" rx="105" ry="105"/><ellipse cx="41" cy="150" rx="255" ry="30"/><ellipse fill="#fff1c5" rx="1" ry="1" transform="matrix(-2.24047 49.42358 -205.66893 -9.32339 113.7 0)"/><ellipse fill="#414831" cx="243" cy="80" rx="104" ry="35"/><ellipse fill="#99a9b6" rx="1" ry="1" transform="matrix(6.72262 23.30938 -87.74443 25.30622 52.5 86.7)"/><ellipse fill="#0b0000" cx="29" cy="158" rx="37" ry="37"/><path fill="#3a3420" d="M167.2 59.5l15.6-14.1 10 11.1-15.6 14.1z"/><ellipse fill="#3b482d" cx="77" cy="121" rx="23" ry="17"/><ellipse fill="#fff0d1" cx="27" rx="40" ry="40"/></g></svg>