<svg xmlns="http://www.w3.org/2000/svg" version="1.1" x="0" y="0" width="522.5" height="522.5" viewBox="0 0 522.5 522.5" xml:space="preserve"><path fill="#6e7c98" d="M325.8 70.5l-17.7-4.9c-2.3-0.8-4.5-0.5-6.7 0.7 -2.2 1.2-3.7 3.1-4.4 5.6L190.4 440.5c-0.8 2.5-0.5 4.8 0.7 7 1.2 2.2 3.1 3.7 5.6 4.4l17.7 4.9c2.3 0.8 4.5 0.5 6.7-0.7 2.2-1.2 3.7-3.1 4.4-5.6L332 81.9c0.8-2.5 0.5-4.8-0.7-7C330.1 72.7 328.2 71.3 325.8 70.5zM166.2 142.5c0-2.5-1-4.7-2.9-6.6l-14.3-14.3c-1.9-1.9-4.1-2.9-6.6-2.9s-4.7 1-6.6 2.9L2.9 254.7C1 256.6 0 258.8 0 261.2c0 2.5 1 4.7 2.9 6.6l133 133c1.9 1.9 4.1 2.9 6.6 2.9s4.7-1 6.6-2.9l14.3-14.3c1.9-1.9 2.9-4.1 2.9-6.6 0-2.5-1-4.7-2.9-6.6L51.1 261.2l112.2-112.2C165.2 147.1 166.2 144.9 166.2 142.5zM519.6 254.7L386.6 121.6c-1.9-1.9-4.1-2.9-6.6-2.9 -2.5 0-4.7 1-6.6 2.9l-14.3 14.3c-1.9 1.9-2.9 4.1-2.9 6.6s0.9 4.7 2.9 6.6l112.2 112.2L359.2 373.4c-1.9 1.9-2.9 4.1-2.9 6.6 0 2.5 0.9 4.7 2.9 6.6l14.3 14.3c1.9 1.9 4.1 2.9 6.6 2.9 2.5 0 4.7-1 6.6-2.9L519.6 267.8c1.9-1.9 2.9-4.1 2.9-6.6C522.5 258.8 521.5 256.6 519.6 254.7z"/></svg>
